<svg width="25" height="25" viewBox="0 0 25 25" fill="none" xmlns="http://www.w3.org/2000/svg">
<g clip-path="url(#clip0_18_40)">
<path d="M11.2554 13.1738C11.082 13.2279 10.9638 13.3885 10.9638 13.5701V17.5841C10.9808 18.1329 11.7771 18.1325 11.794 17.5841V14.9016L13.7514 17.736C13.8768 17.9172 14.0847 17.995 14.281 17.9335C14.482 17.8708 14.612 17.6803 14.612 17.4445L14.5744 13.5585C14.5722 13.3293 14.3823 13.1445 14.1553 13.1475C13.9261 13.1497 13.742 13.3373 13.7443 13.5666L13.7708 16.3031L11.7205 13.3342C11.6173 13.1847 11.429 13.1198 11.2554 13.1738Z" fill="#08212E"/>
<path d="M3.37593 13.1476H2.20781C1.97856 13.1476 1.79272 13.3334 1.79272 13.5626V17.5841C1.79272 17.8119 1.98276 17.9992 2.20967 17.9992C2.20977 17.9992 3.28389 17.9944 3.57993 17.9944C5.03311 17.9901 5.62021 16.1182 4.45464 15.2825C5.10698 14.4209 4.46504 13.1374 3.37593 13.1476ZM3.37593 13.9777C4.05205 14.0035 4.05166 14.9727 3.37593 14.9982C3.28994 14.9982 2.6229 14.9993 2.6229 14.9993V13.9777H3.37593V13.9777ZM3.57998 17.1642C3.40513 17.1642 2.95957 17.1659 2.62295 17.1672V15.8308C2.72847 15.8303 3.57998 15.8295 3.57998 15.8295C4.46426 15.8632 4.46362 17.1309 3.57998 17.1642Z" fill="#08212E"/>
<path d="M21.579 17.169C21.155 17.169 20.746 16.9971 20.4851 16.7092C20.3312 16.5394 20.0687 16.5266 19.8988 16.6804C19.729 16.8343 19.7161 17.0969 19.87 17.2667C20.7771 18.3079 22.8546 18.2934 23.185 16.7855C23.2788 16.2597 23.0357 15.5711 22.0718 15.2156C21.5637 15.0282 21.0918 14.8238 20.9622 14.7669C20.8542 14.6851 20.802 14.5562 20.822 14.4168C20.8346 14.3292 20.8969 14.1155 21.2034 14.0232C21.8174 13.8381 22.3775 14.2845 22.3908 14.2952C22.5663 14.441 22.8269 14.418 22.9739 14.2431C23.1214 14.0676 23.0987 13.8058 22.9232 13.6583C22.8868 13.6275 22.0178 12.9108 20.9638 13.2283C20.4417 13.3856 20.0725 13.7958 20.0002 14.2988C19.9328 14.7688 20.1363 15.2207 20.5315 15.4783C20.5498 15.4903 20.5691 15.5008 20.5891 15.5097C20.6123 15.52 21.1634 15.7654 21.7845 15.9944C22.2008 16.148 22.4134 16.3832 22.3676 16.6396C22.3212 16.8998 22.0135 17.169 21.579 17.169Z" fill="#08212E"/>
<path d="M15.8947 13.1476C15.6655 13.1476 15.4796 13.3334 15.4796 13.5626V16.3298C15.4796 16.9129 15.7487 17.3683 16.3022 17.7219C16.8389 18.0648 17.551 18.0883 18.1179 17.8028C18.9331 17.3923 19.1042 16.7736 19.1042 16.3269V13.5626C19.0855 13.014 18.2932 13.0126 18.274 13.5626V16.3269C18.274 16.5277 18.2191 16.8224 17.7445 17.0613C17.4372 17.2162 17.041 17.2087 16.7491 17.0223C16.4371 16.823 16.3099 16.6223 16.3099 16.3298V13.5626C16.3098 13.3334 16.1239 13.1476 15.8947 13.1476Z" fill="#08212E"/>
<path d="M5.44614 15.5734C5.44614 16.911 6.53438 17.9992 7.87197 17.9992C11.0857 17.8772 11.0849 13.269 7.87193 13.1476C6.53438 13.1476 5.44614 14.2357 5.44614 15.5734ZM9.46763 15.5734C9.46763 16.4532 8.75181 17.169 7.87197 17.169C5.75806 17.0888 5.75864 14.0577 7.87197 13.9777C8.75181 13.9777 9.46763 14.6936 9.46763 15.5734Z" fill="#08212E"/>
<path d="M0.485255 11.9575H24.5117C24.7814 11.9575 25 11.7388 25 11.4691C25 11.1995 24.7813 10.9808 24.5117 10.9808H22.7845C22.4695 9.84834 21.9717 8.78369 21.3013 7.80913L21.2987 6.26723L22.3005 4.89326C22.4933 4.62886 22.3668 4.24131 22.0561 4.14087L20.438 3.61811L19.4408 2.24087C19.2492 1.97612 18.8413 1.97612 18.6497 2.24087L17.6525 3.61811L16.5391 3.97783L16.5792 3.9229C16.7719 3.65849 16.6454 3.2709 16.3347 3.17051L14.2059 2.48271L12.894 0.670702C12.7023 0.406004 12.2945 0.405956 12.1029 0.670702L10.791 2.48271L8.66221 3.17041C8.35147 3.27085 8.225 3.6584 8.41773 3.9228L8.45776 3.97773L7.34439 3.61802L6.34722 2.24077C6.15562 1.97607 5.74776 1.97598 5.5561 2.24077L4.55894 3.61807L2.94087 4.14082C2.63013 4.24126 2.50371 4.62881 2.69639 4.89321L3.69819 6.26719L3.69561 7.80869C3.0251 8.78354 2.52734 9.84829 2.21235 10.9808H0.485255C-0.161767 11.0046 -0.161767 11.9336 0.485255 11.9575ZM18.1045 4.49834C18.2032 4.4665 18.2891 4.404 18.35 4.32007L19.0452 3.35991L19.7404 4.32007C19.8012 4.40405 19.8872 4.4665 19.9858 4.49834L21.1139 4.86284L20.4155 5.8207C20.3544 5.90449 20.3216 6.00552 20.3218 6.10923L20.3238 7.29468L19.1969 6.92646C19.0992 6.89463 18.9913 6.89458 18.8936 6.92646L17.7667 7.29468L17.7687 6.10923C17.7688 6.00557 17.736 5.90449 17.675 5.8207L16.9766 4.86284L18.1045 4.49834ZM11.2431 3.36294C11.3417 3.3311 11.4277 3.2686 11.4885 3.18467L12.4985 1.78974L13.5084 3.18467C13.5692 3.26865 13.6552 3.3311 13.7539 3.36294L15.3927 3.89243L14.3781 5.28403C14.317 5.36782 14.2842 5.46885 14.2844 5.57256L14.2871 7.29473L12.6502 6.75981C12.5522 6.72788 12.4448 6.72788 12.3468 6.75981L10.7099 7.29473L10.7126 5.57256C10.7128 5.4689 10.68 5.36782 10.6189 5.28403L9.60435 3.89243L11.2431 3.36294ZM5.01104 4.49834C5.10967 4.4665 5.19561 4.404 5.25645 4.32007L5.95171 3.35991L6.64692 4.32007C6.70772 4.40405 6.79365 4.4665 6.89233 4.49834L8.02041 4.86284L7.32202 5.8207C7.26099 5.90449 7.22813 6.00552 7.22832 6.10923L7.23027 7.29468L6.10342 6.92646C6.00562 6.89453 5.8979 6.89458 5.80005 6.92646L4.67319 7.29468L4.6752 6.10923C4.67534 6.00557 4.64253 5.90449 4.5815 5.8207L3.88301 4.86284L5.01104 4.49834ZM4.48452 8.38403L5.95176 7.90454L7.56797 8.43267C7.87813 8.53462 8.20859 8.29453 8.20806 7.96767L8.20523 6.26728L9.16602 4.94951L9.7355 5.73081L9.73198 7.96777C9.73145 8.29419 10.0607 8.53452 10.3722 8.43281L12.4985 7.73808L14.6248 8.43281C14.9354 8.53476 15.2655 8.29419 15.265 7.96777L15.2615 5.73081L15.831 4.94951L16.7917 6.26728L16.7889 7.96767C16.7884 8.2956 17.1187 8.5333 17.429 8.43267L19.0452 7.90454L20.5122 8.38393C21.0618 9.18755 21.4826 10.0583 21.7675 10.9808H3.22935C3.51421 10.0584 3.93491 9.18784 4.48452 8.38403Z" fill="#08212E"/>
<path d="M24.5117 19.3031H0.485255C-0.162011 19.3271 -0.161523 20.256 0.485255 20.2797H3.97129C5.51743 22.3293 7.73252 23.7494 10.2357 24.2895C10.4994 24.3464 10.7592 24.1788 10.8161 23.9152C10.8729 23.6516 10.7054 23.3917 10.4417 23.3348C8.41597 22.8977 6.59761 21.8257 5.23145 20.2797H19.7655C18.3884 21.8382 16.5531 22.9137 14.5074 23.3444C14.2435 23.4 14.0746 23.6589 14.1301 23.9228C14.1845 24.1886 14.4514 24.3564 14.7085 24.3001C17.2342 23.7685 19.468 22.3447 21.0257 20.2797H24.5117C25.1588 20.2558 25.1583 19.3268 24.5117 19.3031Z" fill="#08212E"/>
<path d="M12.9492 23.8548C12.7766 23.4409 12.1625 23.4707 12.0314 23.9001C11.9004 24.3292 12.3971 24.6953 12.7694 24.4477C12.9618 24.3197 13.0364 24.0677 12.9492 23.8548Z" fill="#08212E"/>
</g>
<defs>
<clipPath id="clip0_18_40">
<rect width="25" height="25" fill="white"/>
</clipPath>
</defs>
</svg>
