<svg width="25" height="25" viewBox="0 0 25 25" fill="none" xmlns="http://www.w3.org/2000/svg">
<path d="M16.9549 7.2457C17.1571 7.2457 17.3211 7.08174 17.3211 6.87949C17.3211 6.67725 17.1571 6.51328 16.9549 6.51328H14.4648C14.2626 6.51328 14.0986 6.67725 14.0986 6.87949C14.0986 7.08174 14.2626 7.2457 14.4648 7.2457H16.9549Z" fill="#08212E"/>
<path d="M7.78706 13.3897H8.5689V14.1715C8.5689 14.3738 8.73286 14.5377 8.93511 14.5377C9.13736 14.5377 9.30132 14.3738 9.30132 14.1715V13.3897H10.0832C10.2854 13.3897 10.4494 13.2257 10.4494 13.0235C10.4494 12.8212 10.2854 12.6573 10.0832 12.6573H9.30132V11.8754C9.30132 11.6732 9.13736 11.5092 8.93511 11.5092C8.73286 11.5092 8.5689 11.6732 8.5689 11.8754V12.6573H7.78706C7.58482 12.6573 7.42085 12.8212 7.42085 13.0235C7.42085 13.2257 7.58482 13.3897 7.78706 13.3897Z" fill="#08212E"/>
<path d="M17.1039 19.0211H14.8078C14.6055 19.0211 14.4416 19.1851 14.4416 19.3873C14.4416 19.5895 14.6055 19.7535 14.8078 19.7535H17.1039C17.3061 19.7535 17.4701 19.5895 17.4701 19.3873C17.4701 19.1851 17.3061 19.0211 17.1039 19.0211Z" fill="#08212E"/>
<path d="M17.1039 20.3348H14.8078C14.6055 20.3348 14.4416 20.4988 14.4416 20.701C14.4416 20.9033 14.6055 21.0672 14.8078 21.0672H17.1039C17.3061 21.0672 17.4701 20.9033 17.4701 20.701C17.4701 20.4988 17.3061 20.3348 17.1039 20.3348Z" fill="#08212E"/>
<path d="M7.86441 21.1149C7.93589 21.1864 8.02964 21.2222 8.12335 21.2222C8.21705 21.2222 8.3108 21.1864 8.38228 21.1149L8.93511 20.5621L9.48795 21.1149C9.55943 21.1864 9.65318 21.2222 9.74688 21.2222C9.84058 21.2222 9.93433 21.1864 10.0058 21.1149C10.1488 20.9719 10.1488 20.74 10.0058 20.597L9.45298 20.0442L10.0058 19.4914C10.1488 19.3483 10.1488 19.1165 10.0058 18.9735C9.8628 18.8305 9.63091 18.8305 9.48795 18.9735L8.93511 19.5263L8.38228 18.9735C8.23926 18.8305 8.00738 18.8305 7.86441 18.9735C7.72139 19.1165 7.72139 19.3484 7.86441 19.4914L8.41724 20.0442L7.86441 20.597C7.72134 20.74 7.72134 20.9719 7.86441 21.1149Z" fill="#08212E"/>
<path d="M18.9686 11.5336C18.9686 10.6939 18.2854 10.0107 17.4457 10.0107H14.466C13.6262 10.0107 12.9431 10.6939 12.9431 11.5336V14.5133C12.9431 15.3531 13.6263 16.0363 14.466 16.0363H17.4457C18.2854 16.0363 18.9686 15.3531 18.9686 14.5133V11.5336ZM18.2362 14.5133C18.2362 14.9492 17.8815 15.3039 17.4457 15.3039H14.466C14.0301 15.3039 13.6755 14.9492 13.6755 14.5133V11.5336C13.6755 11.0978 14.0301 10.7431 14.466 10.7431H17.4457C17.8815 10.7431 18.2362 11.0978 18.2362 11.5336V14.5133Z" fill="#08212E"/>
<path d="M17.1039 12.6573H14.8078C14.6055 12.6573 14.4416 12.8212 14.4416 13.0235C14.4416 13.2257 14.6055 13.3897 14.8078 13.3897H17.1039C17.3061 13.3897 17.4701 13.2257 17.4701 13.0235C17.4701 12.8212 17.3061 12.6573 17.1039 12.6573Z" fill="#08212E"/>
<path d="M5.92236 14.5133C5.92236 15.3531 6.60557 16.0363 7.44526 16.0363H10.425C11.2647 16.0363 11.9479 15.3531 11.9479 14.5133V11.5336C11.9479 10.6939 11.2647 10.0107 10.425 10.0107H7.44526C6.60552 10.0107 5.92236 10.6939 5.92236 11.5336V14.5133ZM6.65478 11.5336C6.65478 11.0978 7.00942 10.7431 7.44526 10.7431H10.425C10.8608 10.7431 11.2155 11.0978 11.2155 11.5336V14.5133C11.2155 14.9492 10.8608 15.3039 10.425 15.3039H7.44526C7.00938 15.3039 6.65478 14.9492 6.65478 14.5133V11.5336Z" fill="#08212E"/>
<path d="M5.92236 21.534C5.92236 22.3738 6.60557 23.0569 7.44526 23.0569H10.425C11.2647 23.0569 11.9479 22.3737 11.9479 21.534V18.5544C11.9479 17.7146 11.2647 17.0314 10.425 17.0314H7.44526C6.60552 17.0314 5.92236 17.7146 5.92236 18.5544V21.534ZM6.65478 18.5544C6.65478 18.1185 7.00942 17.7638 7.44526 17.7638H10.425C10.8608 17.7638 11.2155 18.1185 11.2155 18.5544V21.534C11.2155 21.9699 10.8608 22.3245 10.425 22.3245H7.44526C7.00938 22.3245 6.65478 21.9699 6.65478 21.534V18.5544Z" fill="#08212E"/>
<path d="M17.4457 17.0314H14.466C13.6262 17.0314 12.9431 17.7146 12.9431 18.5544V21.534C12.9431 22.3738 13.6263 23.0569 14.466 23.0569H17.4457C18.2854 23.0569 18.9686 22.3737 18.9686 21.534V18.5544C18.9686 17.7146 18.2854 17.0314 17.4457 17.0314ZM18.2362 21.534C18.2362 21.9699 17.8815 22.3245 17.4457 22.3245H14.466C14.0301 22.3245 13.6755 21.9699 13.6755 21.534V18.5544C13.6755 18.1185 14.0301 17.7638 14.466 17.7638H17.4457C17.8815 17.7638 18.2362 18.1185 18.2362 18.5544V21.534Z" fill="#08212E"/>
<path d="M19.4326 0H5.56739C4.47251 0 3.58174 0.890772 3.58174 1.98564V17.2269C3.58174 17.4292 3.74571 17.5931 3.94795 17.5931C4.1502 17.5931 4.31416 17.4292 4.31416 17.2269V1.98564C4.31416 1.29463 4.87637 0.732422 5.56739 0.732422H19.4326C20.1236 0.732422 20.6858 1.29463 20.6858 1.98564V23.0144C20.6858 23.7054 20.1236 24.2676 19.4326 24.2676H16.7538C16.5516 24.2676 16.3876 24.4315 16.3876 24.6338C16.3876 24.836 16.5516 25 16.7538 25H19.4326C20.5275 25 21.4182 24.1092 21.4182 23.0144V1.98564C21.4183 0.890772 20.5275 0 19.4326 0Z" fill="#08212E"/>
<path d="M15.1578 24.2676H5.56739C4.87637 24.2676 4.31416 23.7054 4.31416 23.0144V18.8229C4.31416 18.6207 4.1502 18.4567 3.94795 18.4567C3.74571 18.4567 3.58174 18.6207 3.58174 18.8229V23.0144C3.58174 24.1093 4.47251 25 5.56739 25H15.1578C15.3601 25 15.524 24.836 15.524 24.6338C15.524 24.4315 15.3601 24.2676 15.1578 24.2676Z" fill="#08212E"/>
<path d="M7.44526 2.99858H13.682C13.8842 2.99858 14.0482 2.83462 14.0482 2.63237C14.0482 2.43012 13.8842 2.26616 13.682 2.26616H7.44526C6.60552 2.26616 5.92236 2.94936 5.92236 3.78911V7.29243C5.92236 8.13217 6.60557 8.81533 7.44526 8.81533H17.4457C18.2854 8.81533 18.9686 8.13213 18.9686 7.29243V3.78911C18.9686 2.94936 18.2854 2.26616 17.4457 2.26616H15.2628C15.0605 2.26616 14.8966 2.43012 14.8966 2.63237C14.8966 2.83462 15.0605 2.99858 15.2628 2.99858H17.4457C17.8815 2.99858 18.2362 3.35322 18.2362 3.78911V7.29243C18.2362 7.72832 17.8815 8.08291 17.4457 8.08291H7.44526C7.00938 8.08291 6.65478 7.72827 6.65478 7.29243V3.78911C6.65478 3.35322 7.00938 2.99858 7.44526 2.99858Z" fill="#08212E"/>
</svg>
