<svg width="20" height="20" viewBox="0 0 20 20" fill="none" xmlns="http://www.w3.org/2000/svg">
<g clip-path="url(#clip0_10_223)">
<path d="M10 5.25485L2.8671 11.1352C2.8671 11.1435 2.86501 11.1557 2.86084 11.1723C2.85676 11.1888 2.85458 11.2008 2.85458 11.2093V17.1638C2.85458 17.3788 2.93319 17.5651 3.09034 17.722C3.24746 17.879 3.43351 17.958 3.64855 17.958H8.41198V13.1943H11.5881V17.9581H16.3514C16.5664 17.9581 16.7528 17.8793 16.9097 17.722C17.0668 17.5653 17.1457 17.3788 17.1457 17.1638V11.2093C17.1457 11.1763 17.1412 11.1514 17.1332 11.1352L10 5.25485Z" fill="#00819E"/>
<path d="M19.862 9.79534L17.1454 7.53759V2.47621C17.1454 2.36051 17.1082 2.26535 17.0336 2.19088C16.9595 2.11649 16.8644 2.0793 16.7484 2.0793H14.3666C14.2508 2.0793 14.1557 2.11649 14.0812 2.19088C14.0068 2.26535 13.9697 2.36055 13.9697 2.47621V4.89521L10.9429 2.36446C10.6785 2.14943 10.3642 2.04193 10.0003 2.04193C9.63636 2.04193 9.32209 2.14943 9.05748 2.36446L0.137817 9.79534C0.0551319 9.86139 0.00981343 9.95029 0.00138411 10.062C-0.00700176 10.1735 0.0218926 10.271 0.088154 10.3536L0.857264 11.2716C0.923526 11.346 1.01025 11.3915 1.11779 11.4082C1.21707 11.4165 1.31636 11.3875 1.41564 11.3214L10 4.1633L18.5844 11.3213C18.6507 11.379 18.7374 11.4078 18.845 11.4078H18.8822C18.9896 11.3915 19.0762 11.3457 19.1428 11.2715L19.912 10.3536C19.9781 10.2708 20.0071 10.1735 19.9985 10.0618C19.99 9.95042 19.9445 9.86152 19.862 9.79534Z" fill="#00819E"/>
</g>
<defs>
<clipPath id="clip0_10_223">
<rect width="20" height="20" fill="white"/>
</clipPath>
</defs>
</svg>
