<svg width="25" height="25" viewBox="0 0 25 25" fill="none" xmlns="http://www.w3.org/2000/svg">
<path d="M4.39701 19.3335C4.04701 19.3335 3.71056 19.4208 3.41206 19.5848C1.83964 17.5692 0.976562 15.0652 0.976562 12.5C0.976562 6.14586 6.14586 0.976562 12.5 0.976562C13.2725 0.976562 14.0446 1.05343 14.7949 1.20506C15.0589 1.25847 15.3168 1.08757 15.3702 0.823212C15.4236 0.558853 15.2527 0.301361 14.9883 0.247765C14.1745 0.0833511 13.3373 0 12.5 0C9.16119 0 6.02207 1.30024 3.66116 3.66116C1.30024 6.02207 0 9.16119 0 12.5C0 15.3086 0.953674 18.0494 2.68993 20.2467C2.46639 20.5807 2.34623 20.9732 2.34623 21.3842C2.34623 21.932 2.55966 22.447 2.94704 22.8342C3.33424 23.2216 3.84922 23.435 4.39701 23.435C4.9448 23.435 5.45978 23.2216 5.84717 22.8342C6.23455 22.447 6.44779 21.9318 6.44779 21.384C6.44779 20.8364 6.23455 20.3213 5.84717 19.9341C5.45978 19.5467 4.9448 19.3335 4.39701 19.3335ZM5.15652 22.1437C4.95377 22.3467 4.68388 22.4585 4.39701 22.4585C4.11015 22.4585 3.84045 22.3467 3.6375 22.1437C3.43456 21.9408 3.32279 21.6711 3.32279 21.3842C3.32279 21.0972 3.43456 20.8275 3.6375 20.6245C3.84026 20.4216 4.11015 20.31 4.39701 20.31C4.68388 20.31 4.95357 20.4218 5.15652 20.6245C5.35946 20.8275 5.47123 21.0972 5.47123 21.3842C5.47123 21.6711 5.35946 21.9408 5.15652 22.1437Z" fill="#08212E"/>
<path d="M22.3097 4.75273C22.8405 3.95641 22.7552 2.8677 22.0531 2.1656C21.6658 1.77841 21.1508 1.56498 20.603 1.56498C20.0552 1.56498 19.5402 1.77841 19.1528 2.1656C18.7654 2.55299 18.5522 3.06797 18.5522 3.61576C18.5522 4.16355 18.7654 4.67854 19.1528 5.06592C19.5402 5.4533 20.0552 5.66654 20.603 5.66654C20.953 5.66654 21.2894 5.57919 21.5879 5.41515C23.1604 7.43103 24.0234 9.93481 24.0234 12.5C24.0234 18.8541 18.8541 24.0234 12.5 24.0234C11.7352 24.0234 10.9703 23.9481 10.227 23.7993C9.96265 23.7465 9.70535 23.918 9.65233 24.1823C9.5995 24.4469 9.77097 24.704 10.0353 24.757C10.8416 24.9182 11.6709 25 12.5 25C15.8388 25 18.9779 23.6998 21.3388 21.3388C23.6998 18.9779 25 15.8388 25 12.5C25 9.69124 24.0461 6.95019 22.3097 4.75273ZM19.8435 4.37546C19.6405 4.17252 19.5288 3.90282 19.5288 3.61576C19.5288 3.3289 19.6405 3.0592 19.8435 2.85625C20.0462 2.65331 20.3161 2.54154 20.603 2.54154C20.8899 2.54154 21.1597 2.65331 21.3627 2.85625C21.7813 3.27511 21.7813 3.9566 21.3627 4.37546C21.1597 4.57821 20.8899 4.68998 20.603 4.68998C20.3159 4.68998 20.0462 4.57821 19.8435 4.37546Z" fill="#08212E"/>
<path d="M10.4851 20.8984C10.4851 21.1681 10.7039 21.3867 10.9734 21.3867H14.0265C14.2962 21.3867 14.5147 21.1681 14.5147 20.8984V19.9518C15.1567 19.779 15.7705 19.5246 16.3473 19.1923L17.0156 19.8606C17.1072 19.9522 17.2314 20.0037 17.3611 20.0037C17.4904 20.0037 17.6147 19.9522 17.7063 19.8605L19.8643 17.701C20.0548 17.5102 20.0548 17.201 19.8643 17.0105L19.1967 16.3429C19.529 15.7661 19.7834 15.1524 19.9562 14.5103H20.8992C21.1689 14.5103 21.3875 14.2918 21.3875 14.0221V10.969C21.3875 10.6993 21.1689 10.4807 20.8992 10.4807H19.956C19.7832 9.83887 19.529 9.22508 19.1967 8.6483L19.8606 7.98435C19.9522 7.8928 20.0037 7.76844 20.0037 7.63893C20.0035 7.50942 19.952 7.38506 19.8605 7.29351L17.7008 5.13554C17.5102 4.94499 17.201 4.94499 17.0103 5.13573L16.3473 5.79891C15.7705 5.46665 15.1567 5.21221 14.5147 5.03941V4.10156C14.5147 3.83186 14.2962 3.61328 14.0265 3.61328H10.9734C10.7039 3.61328 10.4851 3.83186 10.4851 4.10156V5.0396C9.84326 5.21221 9.22947 5.46665 8.65269 5.79891L7.9895 5.13573C7.79896 4.94518 7.48978 4.94499 7.29904 5.13554L5.13954 7.2937C5.0478 7.38525 4.9963 7.50942 4.9963 7.63893C4.9963 7.76844 5.0478 7.8928 5.13935 7.98435L5.8033 8.6483C5.47104 9.22508 5.2166 9.83868 5.04379 10.4807H4.10252C3.83282 10.4807 3.61424 10.6993 3.61424 10.9688L3.61252 14.0219C3.61233 14.1514 3.66383 14.2757 3.75538 14.3673C3.84693 14.4588 3.9711 14.5103 4.1008 14.5103H5.04379C5.2166 15.1524 5.47104 15.7661 5.8033 16.3429L5.13573 17.0105C4.94518 17.201 4.94499 17.5102 5.13573 17.701L7.2937 19.8605C7.38525 19.952 7.50942 20.0037 7.63893 20.0037H7.63912C7.76863 20.0037 7.8928 19.9522 7.98435 19.8606L8.6525 19.1923C9.22947 19.5246 9.84326 19.779 10.4851 19.9518V20.8984ZM8.84399 18.1654C8.65078 18.0405 8.39653 18.0676 8.23364 18.2302L7.63912 18.8248L6.17142 17.3559L6.76537 16.7618C6.92806 16.5991 6.95515 16.3448 6.83022 16.1516C6.38752 15.4665 6.07624 14.7156 5.90534 13.9194C5.8569 13.6946 5.65815 13.5338 5.42793 13.5338H4.58927L4.59042 11.4573H5.42793C5.65815 11.4573 5.8569 11.2967 5.90534 11.0716C6.07624 10.2757 6.38752 9.52473 6.83022 8.83961C6.95515 8.64639 6.92806 8.39214 6.76537 8.22945L6.17523 7.63912L7.64408 6.17142L8.23364 6.76117C8.39653 6.92387 8.65059 6.95076 8.84399 6.82602C9.52892 6.38332 10.2798 6.07204 11.076 5.90115C11.3009 5.8527 11.4616 5.65376 11.4616 5.42374V4.58984H13.5382V5.42355C13.5382 5.65376 13.6988 5.8527 13.9238 5.90096C14.7198 6.07204 15.4709 6.38313 16.1558 6.82583C16.349 6.95076 16.6033 6.92387 16.766 6.76098L17.3557 6.17142L18.8246 7.63912L18.2344 8.22926C18.0716 8.39214 18.0447 8.64639 18.1696 8.83961C18.6123 9.52473 18.9234 10.2757 19.0945 11.0716C19.1427 11.2967 19.3417 11.4573 19.5719 11.4573H20.4109V13.5338H19.5719C19.3417 13.5338 19.1429 13.6946 19.0945 13.9194C18.9236 14.7154 18.6123 15.4665 18.1696 16.1514C18.0447 16.3448 18.0717 16.5991 18.2344 16.7618L18.8284 17.3557L17.3607 18.8246L16.7662 18.2302C16.6033 18.0674 16.349 18.0405 16.1558 18.1654C15.4707 18.6081 14.7198 18.9192 13.9238 19.0903C13.6988 19.1387 13.5382 19.3375 13.5382 19.5677V20.4102H11.4616V19.5677C11.4616 19.3377 11.3009 19.1387 11.076 19.0903C10.28 18.9194 9.52911 18.6081 8.84399 18.1654Z" fill="#08212E"/>
<path d="M16.5346 12.5C16.5346 10.2753 14.7247 8.46539 12.5 8.46539C10.2753 8.46539 8.46539 10.2753 8.46539 12.5C8.46539 14.7247 10.2753 16.5346 12.5 16.5346C14.7247 16.5346 16.5346 14.7247 16.5346 12.5ZM9.44195 12.5C9.44195 10.8137 10.8137 9.44195 12.5 9.44195C14.1863 9.44195 15.5581 10.8139 15.5581 12.5C15.5581 14.1861 14.1863 15.5581 12.5 15.5581C10.8137 15.5581 9.44195 14.1863 9.44195 12.5Z" fill="#08212E"/>
<path d="M16.996 1.84669C17.1246 1.84669 17.2504 1.79443 17.3412 1.70364C17.432 1.61228 17.4843 1.4864 17.4843 1.35784C17.4843 1.23005 17.4322 1.10397 17.3412 1.01261C17.2504 0.921822 17.1246 0.86956 16.996 0.86956C16.8671 0.86956 16.7418 0.921822 16.651 1.01261C16.56 1.10397 16.5077 1.22948 16.5077 1.35784C16.5077 1.48678 16.56 1.61228 16.651 1.70364C16.7418 1.79443 16.8671 1.84669 16.996 1.84669Z" fill="#08212E"/>
<path d="M8.02536 23.1621C7.897 23.1621 7.77092 23.2143 7.68013 23.3051C7.58934 23.3959 7.53708 23.522 7.53708 23.6504C7.53708 23.7793 7.58934 23.9048 7.68013 23.9956C7.77092 24.0864 7.897 24.1386 8.02536 24.1386C8.15372 24.1386 8.2798 24.0864 8.37059 23.9956C8.46138 23.9048 8.51364 23.7787 8.51364 23.6504C8.51364 23.522 8.46138 23.3959 8.37059 23.3051C8.2798 23.2143 8.15372 23.1621 8.02536 23.1621Z" fill="#08212E"/>
</svg>
